<svg width="95" height="95" viewBox="0 0 95 95" fill="none" xmlns="http://www.w3.org/2000/svg">
<g id="sun">
<path id="Vector" d="M27.434 47.0769C27.434 57.9085 36.2453 66.7197 47.0769 66.7197C57.9085 66.7197 66.7197 57.9085 66.7197 47.0769C66.7197 36.2453 57.9085 27.4341 47.0769 27.4341C36.2453 27.4341 27.434 36.2453 27.434 47.0769ZM47.0769 35.2802C53.5813 35.2802 58.8736 40.5724 58.8736 47.0769C58.8736 53.5814 53.5813 58.8736 47.0769 58.8736C40.5724 58.8736 35.2802 53.5814 35.2802 47.0769C35.2802 40.5724 40.5724 35.2802 47.0769 35.2802ZM43.146 74.5384H50.9921V86.3077H43.146V74.5384ZM43.146 7.84613H50.9921V19.6154H43.146V7.84613ZM7.83826 43.1538H19.6075V51H7.83826V43.1538ZM74.5306 43.1538H86.2998V51H74.5306V43.1538ZM16.5514 72.0394L24.8683 63.7147L30.4195 69.2619L22.1026 77.5867L16.5514 72.0394ZM63.7107 24.888L72.0355 16.5632L77.5827 22.1104L69.2579 30.4352L63.7107 24.888ZM24.8801 30.4391L16.5553 22.1144L22.1065 16.5671L30.4234 24.8919L24.8801 30.4391ZM77.5827 72.0434L72.0355 77.5906L63.7107 69.2658L69.2579 63.7186L77.5827 72.0434Z" fill="#F39C12"/>
</g>
</svg>
